<svg width="172" height="35" viewBox="0 0 172 35" fill="none" xmlns="http://www.w3.org/2000/svg">
<path d="M17.1095 1.72812L1.82981 10.5734C1.22568 10.925 0.73411 11.4412 0.412589 12.0619C0.0910662 12.6825 -0.047119 13.3819 0.0141906 14.0781V19.9765C-0.0394406 20.6814 0.109611 21.3869 0.443766 22.0097C0.777921 22.6327 1.28324 23.147 1.90012 23.4922L17.1782 32.0422C17.7095 32.3435 18.3097 32.5019 18.9205 32.5019C19.5311 32.5019 20.1314 32.3435 20.6626 32.0422L35.6532 23.4906C36.261 23.1387 36.7564 22.6216 37.0816 21.9992C37.407 21.3769 37.5489 20.6749 37.4907 19.975V14.0781C37.5454 13.3849 37.4039 12.6902 37.0826 12.0736C36.7612 11.4569 36.273 10.943 35.6736 10.5906L20.6845 1.74375C20.1395 1.42106 19.5179 1.25055 18.8845 1.25C18.272 1.25 17.6595 1.40938 17.1095 1.72812ZM18.3205 23.661L3.04231 14.8125C2.85136 14.7045 2.69482 14.5447 2.59075 14.3516C2.4423 14.0782 2.40644 13.7576 2.49077 13.4582C2.57511 13.1589 2.77301 12.9041 3.04231 12.7485L18.3205 3.90625C18.495 3.80285 18.6941 3.7483 18.897 3.7483C19.0999 3.7483 19.299 3.80285 19.4736 3.90625L34.4626 12.7719C35.0142 13.0984 35.2032 13.8187 34.8845 14.3844C34.811 14.5176 34.7114 14.6349 34.5917 14.729C34.4721 14.8231 34.3349 14.8924 34.1881 14.9326C34.0412 14.9727 33.8879 14.9831 33.737 14.963C33.586 14.943 33.4407 14.8929 33.3095 14.8156L18.8924 6.29687L5.96106 13.7844L19.458 21.5969C19.7274 21.7554 19.9242 22.0127 20.0065 22.3142C20.0889 22.6159 20.0501 22.9376 19.8986 23.211C19.7999 23.3927 19.6541 23.5447 19.4765 23.6509C19.2989 23.7569 19.0961 23.8134 18.8892 23.814C18.6901 23.8141 18.4945 23.7619 18.322 23.6625L18.3205 23.661ZM18.3424 29.8531L3.06419 21.3016C3.02047 21.2804 2.97819 21.2564 2.93762 21.2296C2.67797 21.0581 2.49547 20.792 2.42895 20.488C2.36242 20.1839 2.41711 19.8659 2.58137 19.6015C2.66037 19.4715 2.76465 19.3586 2.88805 19.2696C3.01144 19.1806 3.15144 19.1172 3.29975 19.0834C3.44805 19.0494 3.60167 19.0455 3.7515 19.072C3.90132 19.0985 4.04431 19.1547 4.172 19.2375L18.8907 27.4719L33.3251 19.2375C33.4577 19.1622 33.604 19.1142 33.7554 19.0965C33.9067 19.0787 34.0602 19.0915 34.2066 19.134C34.353 19.1765 34.4894 19.248 34.6077 19.3441C34.726 19.4402 34.8239 19.5591 34.8955 19.6937C35.0454 19.9671 35.0825 20.2881 34.999 20.5885C34.9155 20.8889 34.718 21.1447 34.4486 21.3016L19.458 29.8531C19.2879 29.9495 19.0956 30.0002 18.9001 30.0002C18.7046 30.0002 18.5124 29.9495 18.3424 29.8531Z" fill="url(#paint0_linear_1130_24)"/>
<path d="M55.8875 25.3852C58.005 25.3852 59.7375 24.8627 61.0575 23.8177C62.3775 22.7452 63.0375 21.3152 63.0375 19.4727C63.0375 17.9052 62.405 16.6402 61.7175 15.8977C61.3875 15.5127 60.8925 15.1552 60.2325 14.8252C59.6 14.4677 59.05 14.2202 58.6375 14.0827L56.85 13.5052C55.4475 13.0927 54.5125 12.7077 54.045 12.3502C53.605 11.9927 53.385 11.5802 53.385 11.1127C53.385 10.3152 54.1275 9.65524 55.4475 9.65524C57.125 9.65524 58.0875 10.4252 58.775 11.8827L62.4875 9.71024C61.085 6.87774 58.61 5.36523 55.4475 5.36523C53.6875 5.36523 52.175 5.88773 50.8825 6.96023C49.6175 8.03273 48.985 9.43524 48.985 11.2227C48.985 12.9827 49.6175 14.3577 50.745 15.2652C51.9275 16.1452 53.0275 16.6402 54.65 17.0802C56.19 17.4927 57.235 17.8777 57.785 18.2077C58.3625 18.5102 58.6375 18.9502 58.6375 19.5277C58.6375 20.5727 57.7575 21.0952 56.025 21.0952C54.1 21.0952 52.7525 20.2152 51.9825 18.4277L48.1875 20.6277C49.2875 23.5702 51.955 25.3852 55.8875 25.3852ZM72.7536 11.2502H69.9211V7.40024L65.7961 8.63774V11.2502H63.5961V15.2102H65.7961V20.0777C65.7961 22.0852 66.2911 23.4602 67.3086 24.2577C68.3261 25.0277 70.1411 25.2752 72.7536 25.0002V21.2602C70.7461 21.3702 69.9211 21.1777 69.9211 20.0777V15.2102H72.7536V11.2502ZM84.8031 12.5427C83.8406 11.4152 82.4656 10.8652 80.7056 10.8652C78.8906 10.8652 77.3506 11.5802 76.0581 12.9827C74.7656 14.3852 74.1331 16.0902 74.1331 18.1252C74.1331 20.1602 74.7656 21.8927 76.0581 23.2952C77.3506 24.6977 78.8906 25.3852 80.7056 25.3852C82.4656 25.3852 83.8406 24.8352 84.8031 23.7077V25.0002H88.9281V11.2502H84.8031V12.5427ZM79.1656 20.5727C78.5606 19.9677 78.2581 19.1427 78.2581 18.1252C78.2581 17.1077 78.5606 16.2827 79.1656 15.6777C79.7706 15.0727 80.5681 14.7702 81.5306 14.7702C82.4931 14.7702 83.2906 15.0727 83.8956 15.6777C84.5006 16.2827 84.8031 17.1077 84.8031 18.1252C84.8031 19.1427 84.5006 19.9677 83.8956 20.5727C83.2906 21.1777 82.4931 21.4802 81.5306 21.4802C80.5681 21.4802 79.7706 21.1777 79.1656 20.5727ZM98.5544 25.3852C101.222 25.3852 103.559 24.0102 104.769 21.8377L101.167 19.7752C100.699 20.7927 99.7919 21.3152 98.4994 21.3152C96.7119 21.3152 95.3919 19.9952 95.3919 18.1252C95.3919 16.2552 96.7119 14.9352 98.4994 14.9352C99.7919 14.9352 100.672 15.4577 101.167 16.4752L104.769 14.3852C103.559 12.2677 101.194 10.8652 98.5544 10.8652C96.4644 10.8652 94.7319 11.5527 93.3294 12.9552C91.9544 14.3577 91.2669 16.0627 91.2669 18.1252C91.2669 20.1877 91.9544 21.8927 93.3294 23.2952C94.7319 24.6977 96.4644 25.3852 98.5544 25.3852ZM114.487 18.1252L119.492 11.2502H114.679L110.554 17.2727V5.75023H106.429V25.0002H110.554V18.9227L114.954 25.0002H119.629L114.487 18.1252ZM131.734 13.1202H125.684V5.75023H121.284V25.0002H125.684V17.3552H131.734V25.0002H136.134V5.75023H131.734V13.1202ZM148.182 18.7577C148.182 20.6277 147.192 21.5902 145.625 21.5902C144.222 21.5902 143.232 20.7102 143.232 19.0877V11.2502H139.107V19.6927C139.107 21.4802 139.602 22.8552 140.565 23.8727C141.555 24.8902 142.792 25.3852 144.25 25.3852C146.037 25.3852 147.357 24.8352 148.182 23.7077V25.0002H152.307V11.2502H148.182V18.7577ZM163.556 10.8652C161.796 10.8652 160.421 11.4152 159.459 12.5427V5.75023H155.334V25.0002H159.459V23.7077C160.421 24.8352 161.796 25.3852 163.556 25.3852C165.371 25.3852 166.911 24.6977 168.204 23.2952C169.496 21.8927 170.129 20.1602 170.129 18.1252C170.129 16.0902 169.496 14.3852 168.204 12.9827C166.911 11.5802 165.371 10.8652 163.556 10.8652ZM160.366 20.5727C159.761 19.9677 159.459 19.1427 159.459 18.1252C159.459 17.1077 159.761 16.2827 160.366 15.6777C160.999 15.0727 161.769 14.7702 162.731 14.7702C163.694 14.7702 164.464 15.0727 165.069 15.6777C165.701 16.2827 166.004 17.1077 166.004 18.1252C166.004 19.1427 165.701 19.9677 165.069 20.5727C164.464 21.1777 163.694 21.4802 162.731 21.4802C161.769 21.4802 160.999 21.1777 160.366 20.5727Z" fill="url(#paint1_linear_1130_24)"/>
<defs>
<linearGradient id="paint0_linear_1130_24" x1="18.7517" y1="1.25" x2="18.7517" y2="32.5019" gradientUnits="userSpaceOnUse">
<stop stop-color="#6034E2"/>
<stop offset="1" stop-color="#350DAD"/>
</linearGradient>
<linearGradient id="paint1_linear_1130_24" x1="109.375" y1="0.00023356" x2="109.375" y2="35.0002" gradientUnits="userSpaceOnUse">
<stop stop-color="#6034E2"/>
<stop offset="0.822917" stop-color="#350DAD"/>
</linearGradient>
</defs>
</svg>
