<svg width="172" height="35" viewBox="0 0 172 35" fill="none" xmlns="http://www.w3.org/2000/svg">
<path d="M17.1095 1.72812L1.82981 10.5734C1.22568 10.925 0.73411 11.4412 0.412589 12.0619C0.0910662 12.6825 -0.047119 13.3819 0.0141906 14.0781V19.9765C-0.0394406 20.6814 0.109611 21.3869 0.443766 22.0097C0.777921 22.6327 1.28324 23.147 1.90012 23.4922L17.1782 32.0422C17.7095 32.3435 18.3097 32.5019 18.9205 32.5019C19.5311 32.5019 20.1314 32.3435 20.6626 32.0422L35.6532 23.4906C36.261 23.1387 36.7564 22.6216 37.0816 21.9992C37.407 21.3769 37.5489 20.6749 37.4907 19.975V14.0781C37.5454 13.3849 37.4039 12.6902 37.0826 12.0736C36.7612 11.4569 36.273 10.943 35.6736 10.5906L20.6845 1.74375C20.1395 1.42106 19.5179 1.25055 18.8845 1.25C18.272 1.25 17.6595 1.40938 17.1095 1.72812ZM18.3205 23.661L3.04231 14.8125C2.85136 14.7045 2.69482 14.5447 2.59075 14.3516C2.4423 14.0782 2.40644 13.7576 2.49077 13.4582C2.57511 13.1589 2.77301 12.9041 3.04231 12.7485L18.3205 3.90625C18.495 3.80285 18.6941 3.7483 18.897 3.7483C19.0999 3.7483 19.299 3.80285 19.4736 3.90625L34.4626 12.7719C35.0142 13.0984 35.2032 13.8187 34.8845 14.3844C34.811 14.5176 34.7114 14.6349 34.5917 14.729C34.4721 14.8231 34.3349 14.8924 34.1881 14.9326C34.0412 14.9727 33.8879 14.9831 33.737 14.963C33.586 14.943 33.4407 14.8929 33.3095 14.8156L18.8924 6.29687L5.96106 13.7844L19.458 21.5969C19.7274 21.7554 19.9242 22.0127 20.0065 22.3142C20.0889 22.6159 20.0501 22.9376 19.8986 23.211C19.7999 23.3927 19.6541 23.5447 19.4765 23.6509C19.2989 23.7569 19.0961 23.8134 18.8892 23.814C18.6901 23.8141 18.4945 23.7619 18.322 23.6625L18.3205 23.661ZM18.3424 29.8531L3.06419 21.3016C3.02047 21.2804 2.97819 21.2564 2.93762 21.2296C2.67797 21.0581 2.49547 20.792 2.42895 20.488C2.36242 20.1839 2.41711 19.8659 2.58137 19.6015C2.66037 19.4715 2.76465 19.3586 2.88805 19.2696C3.01144 19.1806 3.15144 19.1172 3.29975 19.0834C3.44805 19.0494 3.60167 19.0455 3.7515 19.072C3.90132 19.0985 4.04431 19.1547 4.172 19.2375L18.8907 27.4719L33.3251 19.2375C33.4577 19.1622 33.604 19.1142 33.7554 19.0965C33.9067 19.0787 34.0602 19.0915 34.2066 19.134C34.353 19.1765 34.4894 19.248 34.6077 19.3441C34.726 19.4402 34.8239 19.5591 34.8955 19.6937C35.0454 19.9671 35.0825 20.2881 34.999 20.5885C34.9155 20.8889 34.718 21.1447 34.4486 21.3016L19.458 29.8531C19.2879 29.9495 19.0956 30.0002 18.9001 30.0002C18.7046 30.0002 18.5124 29.9495 18.3424 29.8531Z" fill="url(#paint0_linear_1421_225)"/>
<path d="M55.8875 25.385C58.005 25.385 59.7375 24.8625 61.0575 23.8175C62.3775 22.745 63.0375 21.315 63.0375 19.4725C63.0375 17.905 62.405 16.64 61.7175 15.8975C61.3875 15.5125 60.8925 15.155 60.2325 14.825C59.6 14.4675 59.05 14.22 58.6375 14.0825L56.85 13.505C55.4475 13.0925 54.5125 12.7075 54.045 12.35C53.605 11.9925 53.385 11.58 53.385 11.1125C53.385 10.315 54.1275 9.65499 55.4475 9.65499C57.125 9.65499 58.0875 10.425 58.775 11.8825L62.4875 9.70999C61.085 6.87749 58.61 5.36499 55.4475 5.36499C53.6875 5.36499 52.175 5.88749 50.8825 6.95999C49.6175 8.03249 48.985 9.43499 48.985 11.2225C48.985 12.9825 49.6175 14.3575 50.745 15.265C51.9275 16.145 53.0275 16.64 54.65 17.08C56.19 17.4925 57.235 17.8775 57.785 18.2075C58.3625 18.51 58.6375 18.95 58.6375 19.5275C58.6375 20.5725 57.7575 21.095 56.025 21.095C54.1 21.095 52.7525 20.215 51.9825 18.4275L48.1875 20.6275C49.2875 23.57 51.955 25.385 55.8875 25.385ZM72.7536 11.25H69.9211V7.39999L65.7961 8.63749V11.25H63.5961V15.21H65.7961V20.0775C65.7961 22.085 66.2911 23.46 67.3086 24.2575C68.3261 25.0275 70.1411 25.275 72.7536 25V21.26C70.7461 21.37 69.9211 21.1775 69.9211 20.0775V15.21H72.7536V11.25ZM84.8031 12.5425C83.8406 11.415 82.4656 10.865 80.7056 10.865C78.8906 10.865 77.3506 11.58 76.0581 12.9825C74.7656 14.385 74.1331 16.09 74.1331 18.125C74.1331 20.16 74.7656 21.8925 76.0581 23.295C77.3506 24.6975 78.8906 25.385 80.7056 25.385C82.4656 25.385 83.8406 24.835 84.8031 23.7075V25H88.9281V11.25H84.8031V12.5425ZM79.1656 20.5725C78.5606 19.9675 78.2581 19.1425 78.2581 18.125C78.2581 17.1075 78.5606 16.2825 79.1656 15.6775C79.7706 15.0725 80.5681 14.77 81.5306 14.77C82.4931 14.77 83.2906 15.0725 83.8956 15.6775C84.5006 16.2825 84.8031 17.1075 84.8031 18.125C84.8031 19.1425 84.5006 19.9675 83.8956 20.5725C83.2906 21.1775 82.4931 21.48 81.5306 21.48C80.5681 21.48 79.7706 21.1775 79.1656 20.5725ZM98.5544 25.385C101.222 25.385 103.559 24.01 104.769 21.8375L101.167 19.775C100.699 20.7925 99.7919 21.315 98.4994 21.315C96.7119 21.315 95.3919 19.995 95.3919 18.125C95.3919 16.255 96.7119 14.935 98.4994 14.935C99.7919 14.935 100.672 15.4575 101.167 16.475L104.769 14.385C103.559 12.2675 101.194 10.865 98.5544 10.865C96.4644 10.865 94.7319 11.5525 93.3294 12.955C91.9544 14.3575 91.2669 16.0625 91.2669 18.125C91.2669 20.1875 91.9544 21.8925 93.3294 23.295C94.7319 24.6975 96.4644 25.385 98.5544 25.385ZM114.487 18.125L119.492 11.25H114.679L110.554 17.2725V5.74999H106.429V25H110.554V18.9225L114.954 25H119.629L114.487 18.125ZM131.734 13.12H125.684V5.74999H121.284V25H125.684V17.355H131.734V25H136.134V5.74999H131.734V13.12ZM148.182 18.7575C148.182 20.6275 147.192 21.59 145.625 21.59C144.222 21.59 143.232 20.71 143.232 19.0875V11.25H139.107V19.6925C139.107 21.48 139.602 22.855 140.565 23.8725C141.555 24.89 142.792 25.385 144.25 25.385C146.037 25.385 147.357 24.835 148.182 23.7075V25H152.307V11.25H148.182V18.7575ZM163.556 10.865C161.796 10.865 160.421 11.415 159.459 12.5425V5.74999H155.334V25H159.459V23.7075C160.421 24.835 161.796 25.385 163.556 25.385C165.371 25.385 166.911 24.6975 168.204 23.295C169.496 21.8925 170.129 20.16 170.129 18.125C170.129 16.09 169.496 14.385 168.204 12.9825C166.911 11.58 165.371 10.865 163.556 10.865ZM160.366 20.5725C159.761 19.9675 159.459 19.1425 159.459 18.125C159.459 17.1075 159.761 16.2825 160.366 15.6775C160.999 15.0725 161.769 14.77 162.731 14.77C163.694 14.77 164.464 15.0725 165.069 15.6775C165.701 16.2825 166.004 17.1075 166.004 18.125C166.004 19.1425 165.701 19.9675 165.069 20.5725C164.464 21.1775 163.694 21.48 162.731 21.48C161.769 21.48 160.999 21.1775 160.366 20.5725Z" fill="url(#paint1_linear_1421_225)"/>
<defs>
<linearGradient id="paint0_linear_1421_225" x1="18.7517" y1="1.25" x2="18.7517" y2="32.5019" gradientUnits="userSpaceOnUse">
<stop stop-color="#6034E2"/>
<stop offset="1" stop-color="#350DAD"/>
</linearGradient>
<linearGradient id="paint1_linear_1421_225" x1="109.375" y1="-1.05802e-05" x2="109.375" y2="35" gradientUnits="userSpaceOnUse">
<stop stop-color="#6034E2"/>
<stop offset="0.822917" stop-color="#350DAD"/>
</linearGradient>
</defs>
</svg>
