<svg width="219" height="12" viewBox="0 0 219 12" fill="none" xmlns="http://www.w3.org/2000/svg">
<path d="M201.459 1.44089C196.672 1.12483 191.885 0.892427 187.098 0.622843C185.519 0.529884 183.932 0.529889 182.352 0.483409C178.924 0.381154 175.495 0.288187 172.067 0.185931C170.16 0.130155 168.245 0.06509 166.339 0.0186101C165.782 0.00931414 165.234 0 164.678 0C163.434 0 162.19 0.0185908 160.946 0.0278868C155.292 0.0278868 149.63 0.0464969 143.975 0.0464969C142.625 0.0464969 141.283 0.0836786 139.933 0.102271C136.595 0.14875 133.264 0.20453 129.934 0.25101C126.17 0.306786 122.414 0.325361 118.65 0.436912C112.562 0.60424 106.482 0.780881 100.394 0.948209C96.8673 1.05046 93.3488 1.10624 89.822 1.26427C83.7504 1.54315 77.687 1.81274 71.6154 2.08232C68.3014 2.23106 64.9792 2.35189 61.6652 2.5657C55.389 2.96543 49.1128 3.35586 42.8367 3.75559C39.4817 3.96939 36.1268 4.12743 32.7801 4.45278C26.5285 5.05702 20.285 5.66127 14.0334 6.26551C12.6833 6.39566 11.3331 6.52578 9.98295 6.65593C7.28264 6.91622 4.5987 7.32524 1.90658 7.66919C1.73474 7.69708 1.57109 7.72498 1.39925 7.74357C1.08012 7.84583 0.793727 8.03175 0.556427 8.30134C0.204569 8.70106 0 9.25881 0 9.82586C0 10.3929 0.204569 10.9507 0.556427 11.3597C0.875554 11.7222 1.43198 12.0569 1.90658 11.9918C5.15513 11.5735 8.3955 11.1366 11.6522 10.8205C14.6717 10.5324 17.6829 10.2349 20.7023 9.94671C23.9918 9.63065 27.2813 9.3146 30.5707 8.99853C31.8963 8.86839 33.2219 8.70106 34.5557 8.6174C39.6863 8.29204 44.8169 7.97597 49.9475 7.65991C53.1469 7.4554 56.3464 7.26016 59.5458 7.05565C60.8633 6.97198 62.1889 6.86974 63.5145 6.80467C68.5959 6.57227 73.6856 6.35847 78.7671 6.14466C81.852 6.01452 84.9287 5.87508 88.0136 5.74494C89.0528 5.69846 90.0838 5.64267 91.123 5.61478C96.6137 5.46605 102.104 5.32661 107.595 5.18718C110.663 5.10351 113.724 5.02913 116.792 4.94547C117.881 4.91758 118.977 4.87111 120.065 4.86181C125.728 4.79674 131.39 4.73167 137.053 4.6666C140.588 4.62012 144.115 4.58292 147.649 4.59222C153.664 4.61081 159.678 4.62012 165.684 4.63872C166.871 4.63872 168.057 4.69448 169.244 4.74096C172.566 4.85251 175.88 4.96408 179.202 5.07563C181.69 5.15929 184.177 5.24295 186.673 5.32661C188.44 5.38239 190.2 5.53112 191.967 5.64267C197.163 5.95873 202.359 6.29339 207.547 6.65593C208.865 6.74889 210.182 6.86044 211.499 6.97199C212.915 7.08354 214.331 7.20439 215.738 7.38101C215.959 7.4182 216.172 7.46467 216.393 7.52045C216.949 7.65059 217.481 7.61341 217.98 7.28805C218.438 6.98128 218.782 6.47002 218.929 5.88437C219.224 4.6573 218.569 3.34656 217.489 3.00261C216.54 2.70514 215.558 2.58429 214.584 2.47274C213.913 2.39837 213.251 2.3147 212.58 2.24034C211.295 2.0916 210.002 2.01725 208.717 1.90569C206.303 1.70118 203.881 1.58032 201.459 1.42228V1.44089Z" fill="#6034E2"/>
</svg>
