<svg width="24" height="24" viewBox="0 0 24 24" fill="none" xmlns="http://www.w3.org/2000/svg">
<path d="M4.63803 20.673L4.18404 21.564L4.63803 20.673ZM3.32698 19.362L2.43597 19.816L3.32698 19.362ZM20.673 19.362L21.564 19.816L20.673 19.362ZM19.362 20.673L19.816 21.564L19.362 20.673ZM19.362 7.32698L19.816 6.43597L19.362 7.32698ZM20.673 8.63803L21.564 8.18404L20.673 8.63803ZM4.63803 7.32698L4.18404 6.43597L4.63803 7.32698ZM3.32698 8.63803L2.43597 8.18404L3.32698 8.63803ZM13.7765 3.10222L14.0353 2.1363V2.1363L13.7765 3.10222ZM15 7C15 7.55228 15.4477 8 16 8C16.5523 8 17 7.55228 17 7H15ZM15.8978 5.22354L16.8637 4.96472V4.96472L15.8978 5.22354ZM10.2235 3.10222L10.4824 4.06815L10.2235 3.10222ZM7 7C7 7.55228 7.44772 8 8 8C8.55228 8 9 7.55228 9 7H7ZM8.10222 5.22354L9.06815 5.48236L8.10222 5.22354ZM11.6 11.376L11.5735 10.3764L11.5688 10.3765L11.6 11.376ZM10 12.6875L9 12.6858L10 12.6875ZM13.7593 12.4706C14.2953 12.6036 14.8376 12.2768 14.9706 11.7408C15.1035 11.2047 14.7768 10.6624 14.2407 10.5294L13.7593 12.4706ZM12 11.376L12.0067 12.376L12 11.376ZM12.1861 16.5991V17.5991C12.225 17.5991 12.2638 17.5968 12.3025 17.5923L12.1861 16.5991ZM10.124 15.5078C9.57601 15.4392 9.07622 15.828 9.00772 16.376C8.93922 16.924 9.32795 17.4238 9.87597 17.4923L10.124 15.5078ZM13 17C13 16.4477 12.5523 16 12 16C11.4477 16 11 16.4477 11 17H13ZM11 18C11 18.5523 11.4477 19 12 19C12.5523 19 13 18.5523 13 18H11ZM13 10C13 9.44772 12.5523 9 12 9C11.4477 9 11 9.44772 11 10H13ZM11 11C11 11.5523 11.4477 12 12 12C12.5523 12 13 11.5523 13 11H11ZM7.8 8H16.2V6H7.8V8ZM20 11.8V16.2H22V11.8H20ZM16.2 20H7.8V22H16.2V20ZM4 16.2V11.8H2V16.2H4ZM7.8 20C6.94342 20 6.36113 19.9992 5.91104 19.9624C5.47262 19.9266 5.24842 19.8617 5.09202 19.782L4.18404 21.564C4.66937 21.8113 5.18608 21.9099 5.74817 21.9558C6.2986 22.0008 6.97642 22 7.8 22V20ZM2 16.2C2 17.0236 1.99922 17.7014 2.04419 18.2518C2.09012 18.8139 2.18868 19.3306 2.43597 19.816L4.21799 18.908C4.1383 18.7516 4.07337 18.5274 4.03755 18.089C4.00078 17.6389 4 17.0566 4 16.2H2ZM5.09202 19.782C4.7157 19.5903 4.40973 19.2843 4.21799 18.908L2.43597 19.816C2.81947 20.5686 3.43139 21.1805 4.18404 21.564L5.09202 19.782ZM20 16.2C20 17.0566 19.9992 17.6389 19.9624 18.089C19.9266 18.5274 19.8617 18.7516 19.782 18.908L21.564 19.816C21.8113 19.3306 21.9099 18.8139 21.9558 18.2518C22.0008 17.7014 22 17.0236 22 16.2H20ZM16.2 22C17.0236 22 17.7014 22.0008 18.2518 21.9558C18.8139 21.9099 19.3306 21.8113 19.816 21.564L18.908 19.782C18.7516 19.8617 18.5274 19.9266 18.089 19.9624C17.6389 19.9992 17.0566 20 16.2 20V22ZM19.782 18.908C19.5903 19.2843 19.2843 19.5903 18.908 19.782L19.816 21.564C20.5686 21.1805 21.1805 20.5686 21.564 19.816L19.782 18.908ZM16.2 8C17.0566 8 17.6389 8.00078 18.089 8.03755C18.5274 8.07337 18.7516 8.1383 18.908 8.21799L19.816 6.43597C19.3306 6.18868 18.8139 6.09012 18.2518 6.04419C17.7014 5.99922 17.0236 6 16.2 6V8ZM22 11.8C22 10.9764 22.0008 10.2986 21.9558 9.74817C21.9099 9.18608 21.8113 8.66937 21.564 8.18404L19.782 9.09202C19.8617 9.24842 19.9266 9.47262 19.9624 9.91104C19.9992 10.3611 20 10.9434 20 11.8H22ZM18.908 8.21799C19.2843 8.40973 19.5903 8.7157 19.782 9.09202L21.564 8.18404C21.1805 7.43139 20.5686 6.81947 19.816 6.43597L18.908 8.21799ZM7.8 6C6.97642 6 6.2986 5.99922 5.74817 6.04419C5.18608 6.09012 4.66937 6.18868 4.18404 6.43597L5.09202 8.21799C5.24842 8.1383 5.47262 8.07337 5.91104 8.03755C6.36113 8.00078 6.94342 8 7.8 8V6ZM4 11.8C4 10.9434 4.00078 10.3611 4.03755 9.91104C4.07337 9.47262 4.1383 9.24842 4.21799 9.09202L2.43597 8.18404C2.18868 8.66937 2.09012 9.18608 2.04419 9.74817C1.99922 10.2986 2 10.9764 2 11.8H4ZM4.18404 6.43597C3.43139 6.81947 2.81947 7.43139 2.43597 8.18404L4.21799 9.09202C4.40973 8.71569 4.71569 8.40973 5.09202 8.21799L4.18404 6.43597ZM12 4C12.9944 4 13.2954 4.00859 13.5176 4.06815L14.0353 2.1363C13.4946 1.99141 12.8656 2 12 2V4ZM17 7C17 6.13441 17.0086 5.50545 16.8637 4.96472L14.9319 5.48236C14.9914 5.70464 15 6.00565 15 7H17ZM13.5176 4.06815C14.2078 4.25308 14.7469 4.79218 14.9319 5.48236L16.8637 4.96472C16.4938 3.58436 15.4156 2.50617 14.0353 2.1363L13.5176 4.06815ZM12 2C11.1344 2 10.5054 1.99141 9.96472 2.1363L10.4824 4.06815C10.7046 4.00859 11.0056 4 12 4V2ZM9 7C9 6.00565 9.00859 5.70464 9.06815 5.48236L7.1363 4.96472C6.99141 5.50545 7 6.13441 7 7H9ZM9.96472 2.1363C8.58436 2.50617 7.50617 3.58436 7.1363 4.96472L9.06815 5.48236C9.25308 4.79218 9.79218 4.25308 10.4824 4.06815L9.96472 2.1363ZM11.5688 10.3765C11.061 10.3923 10.4469 10.5054 9.93053 10.8612C9.36025 11.254 9.00139 11.8833 9 12.6858L11 12.6893C11.0002 12.5936 11.019 12.5566 11.0224 12.5502C11.0258 12.5438 11.0338 12.5298 11.0651 12.5082C11.1465 12.4522 11.3316 12.3849 11.6312 12.3755L11.5688 10.3765ZM9 12.6858C8.99841 13.6093 9.49578 14.2526 10.1512 14.6046C10.737 14.9192 11.4294 15 12 15V13C11.5706 13 11.2621 12.931 11.0975 12.8426C11.0623 12.8237 11.0408 12.8076 11.0288 12.797C11.0174 12.787 11.0137 12.7813 11.0131 12.7803C11.0127 12.7797 11.0106 12.7768 11.008 12.7673C11.0052 12.7572 10.9999 12.7329 11 12.6893L9 12.6858ZM12 15C12.4587 15 12.7608 15.0594 12.9175 15.14C12.9491 15.1562 12.9662 15.1693 12.9741 15.1761C12.978 15.1796 12.98 15.1818 12.9808 15.1827C12.9816 15.1836 12.9818 15.184 12.9819 15.184C12.9819 15.1841 12.9825 15.1851 12.9836 15.1875C12.9846 15.1899 12.9866 15.195 12.9889 15.2035C12.9933 15.2202 13 15.2546 13 15.3125H15C15 14.8827 14.8986 14.4747 14.6744 14.1185C14.4517 13.7649 14.1463 13.5231 13.8325 13.3616C13.2392 13.0563 12.5413 13 12 13V15ZM14.2407 10.5294C13.5926 10.3687 12.6362 10.3718 11.9933 10.376L12.0067 12.376C12.734 12.3711 13.4074 12.3834 13.7593 12.4706L14.2407 10.5294ZM11.9933 10.376C11.9419 10.3764 11.9184 10.376 11.908 10.3758C11.8914 10.3754 11.9052 10.3756 11.8673 10.3742C11.7995 10.3717 11.7283 10.3723 11.5735 10.3764L11.6265 12.3757C11.7018 12.3737 11.7439 12.3729 11.7686 12.3727C11.7804 12.3726 11.7865 12.3727 11.7892 12.3727C11.7911 12.3727 11.7918 12.3728 11.7929 12.3728C11.7994 12.3731 11.7961 12.373 11.813 12.3737C11.8257 12.3742 11.8413 12.3748 11.8607 12.3752C11.8984 12.3761 11.9436 12.3764 12.0067 12.376L11.9933 10.376ZM13 15.3125C13 15.3413 12.9954 15.3337 13.005 15.318C13.0107 15.3087 13.0017 15.3299 12.9395 15.3689C12.7954 15.4592 12.5134 15.5539 12.0697 15.6059L12.3025 17.5923C12.8652 17.5264 13.4901 17.3841 14.0014 17.0637C14.5627 16.712 15 16.1267 15 15.3125H13ZM12.1861 15.5991C11.3702 15.5991 11.0503 15.6235 10.124 15.5078L9.87597 17.4923C10.9497 17.6265 11.402 17.5991 12.1861 17.5991V15.5991ZM11 17V18H13V17H11ZM11 10V11H13V10H11Z" fill="#131A29"/>
</svg>
