<svg width="44" height="44" viewBox="0 0 44 44" fill="none" xmlns="http://www.w3.org/2000/svg">
<path d="M11 11.9167V11.3667C11 9.31314 11 8.28638 11.3996 7.50203C11.7512 6.81211 12.3121 6.25118 13.002 5.89964C13.7864 5.5 14.8131 5.5 16.8667 5.5H32.6333C34.6869 5.5 35.7136 5.5 36.498 5.89964C37.1879 6.25118 37.7488 6.81211 38.1004 7.50203C38.5 8.28638 38.5 9.31314 38.5 11.3667V23.4667C38.5 25.5202 38.5 26.547 38.1004 27.3313C37.7488 28.0212 37.1879 28.5822 36.498 28.9337C35.7136 29.3333 34.6869 29.3333 32.6333 29.3333H25.6667M33 11L23.8333 20.1667L18.3333 14.6667M33 11V16.5M33 11H27.5M16.5 22C16.5 24.025 14.8584 25.6667 12.8333 25.6667C10.8083 25.6667 9.16667 24.025 9.16667 22C9.16667 19.975 10.8083 18.3333 12.8333 18.3333C14.8584 18.3333 16.5 19.975 16.5 22ZM12.8333 31.1667C14.5383 31.1667 15.3908 31.1667 16.0902 31.3541C17.9882 31.8626 19.4707 33.3452 19.9793 35.2432C20.1667 35.9426 20.1667 36.7951 20.1667 38.5H5.5C5.5 36.7951 5.5 35.9426 5.68741 35.2432C6.19598 33.3452 7.67849 31.8626 9.5765 31.3541C10.2759 31.1667 11.1284 31.1667 12.8333 31.1667Z" stroke="#6034E2" stroke-width="3" stroke-linecap="round" stroke-linejoin="round"/>
</svg>
