<svg width="24" height="24" viewBox="0 0 24 24" fill="none" xmlns="http://www.w3.org/2000/svg">
<path d="M6.58245 5.63116C6.9165 5.03731 7.08352 4.74038 7.3198 4.52426C7.52884 4.33305 7.77611 4.18843 8.04525 4.09998C8.34946 4 8.69014 4 9.37149 4H14.6285C15.3098 4 15.6505 4 15.9547 4.09998C16.2239 4.18843 16.4711 4.33305 16.6802 4.52426C16.9164 4.74038 17.0835 5.03731 17.4175 5.63116L20.1175 10.4312C20.4394 11.0034 20.6004 11.2896 20.6634 11.593C20.7192 11.8614 20.7192 12.1386 20.6634 12.407C20.6004 12.7104 20.4394 12.9966 20.1175 13.5688L17.4175 18.3688C17.0835 18.9627 16.9164 19.2596 16.6802 19.4757C16.4711 19.667 16.2239 19.8116 15.9547 19.9C15.6505 20 15.3098 20 14.6285 20H9.37149C8.69014 20 8.34946 20 8.04525 19.9C7.77611 19.8116 7.52884 19.667 7.3198 19.4757C7.08352 19.2596 6.9165 18.9627 6.58245 18.3688L3.88245 13.5688C3.56055 12.9966 3.39961 12.7104 3.33654 12.407C3.28072 12.1386 3.28072 11.8614 3.33654 11.593C3.39961 11.2896 3.56055 11.0034 3.88245 10.4312L6.58245 5.63116Z" stroke="#787878" stroke-width="2" stroke-linecap="round" stroke-linejoin="round"/>
<path d="M12.8838 8.02612L15.416 14.7724L8.09162 13.5373L12.8838 8.02612Z" stroke="#787878" stroke-width="2" stroke-linecap="round" stroke-linejoin="round"/>
<path d="M8.99239 13.6646C8.90323 14.1482 8.42105 14.471 7.91541 14.3858C7.40977 14.3005 7.07214 13.8394 7.1613 13.3559C7.25046 12.8723 7.73264 12.5494 8.23828 12.6347C8.74392 12.72 9.08155 13.1811 8.99239 13.6646Z" stroke="#787878" stroke-width="2" stroke-linecap="round" stroke-linejoin="round"/>
<path d="M16.3064 14.9466C16.2172 15.4302 15.735 15.753 15.2294 15.6678C14.7237 15.5825 14.3861 15.1214 14.4753 14.6379C14.5644 14.1543 15.0466 13.8314 15.5522 13.9167C16.0579 14.002 16.3955 14.4631 16.3064 14.9466Z" stroke="#787878" stroke-width="2" stroke-linecap="round" stroke-linejoin="round"/>
<path d="M13.8225 8.18429C13.7333 8.66784 13.2511 8.99071 12.7455 8.90545C12.2398 8.82019 11.9022 8.35908 11.9914 7.87553C12.0805 7.39199 12.5627 7.06912 13.0684 7.15438C13.574 7.23964 13.9116 7.70075 13.8225 8.18429Z" stroke="#787878" stroke-width="2" stroke-linecap="round" stroke-linejoin="round"/>
</svg>
