<svg width="44" height="44" viewBox="0 0 44 44" fill="none" xmlns="http://www.w3.org/2000/svg">
<path d="M11.9167 22C11.9167 27.5689 16.4311 32.0833 22 32.0833M32.0833 22C32.0833 16.4311 27.5689 11.9167 22 11.9167M38.5 22C38.5 31.1127 31.1127 38.5 22 38.5C12.8873 38.5 5.5 31.1127 5.5 22C5.5 12.8873 12.8873 5.5 22 5.5C31.1127 5.5 38.5 12.8873 38.5 22ZM25.6667 22C25.6667 24.025 24.025 25.6667 22 25.6667C19.975 25.6667 18.3333 24.025 18.3333 22C18.3333 19.975 19.975 18.3333 22 18.3333C24.025 18.3333 25.6667 19.975 25.6667 22Z" stroke="#6034E2" stroke-width="3" stroke-linecap="round" stroke-linejoin="round"/>
</svg>
