<svg width="44" height="44" viewBox="0 0 44 44" fill="none" xmlns="http://www.w3.org/2000/svg">
<path d="M22 14.6667V36.6667M22 12.8333H15.5179C14.5628 12.8333 13.6468 12.447 12.9714 11.7594C12.2961 11.0718 11.9167 10.1391 11.9167 9.16667C11.9167 8.19421 12.2961 7.26158 12.9714 6.57394C13.6468 5.88631 14.5628 5.5 15.5179 5.5C20.5595 5.5 22 12.8333 22 12.8333ZM22 12.8333H28.4821C29.4372 12.8333 30.3532 12.447 31.0286 11.7594C31.7039 11.0718 32.0833 10.1391 32.0833 9.16667C32.0833 8.19421 31.7039 7.26158 31.0286 6.57394C30.3532 5.88631 29.4372 5.5 28.4821 5.5C23.4405 5.5 22 12.8333 22 12.8333ZM9.16667 22H34.8333V32.6333C34.8333 34.6869 34.8333 35.7136 34.4337 36.498C34.0822 37.1879 33.5212 37.7488 32.8313 38.1004C32.047 38.5 31.0202 38.5 28.9667 38.5H15.0333C12.9798 38.5 11.953 38.5 11.1687 38.1004C10.4788 37.7488 9.91785 37.1879 9.56631 36.498C9.16667 35.7136 9.16667 34.6869 9.16667 32.6333V22ZM8.43333 22H35.5667C36.5934 22 37.1068 22 37.499 21.8002C37.8439 21.6244 38.1244 21.3439 38.3002 20.999C38.5 20.6068 38.5 20.0934 38.5 19.0667V15.7667C38.5 14.7399 38.5 14.2265 38.3002 13.8344C38.1244 13.4894 37.8439 13.2089 37.499 13.0332C37.1068 12.8333 36.5934 12.8333 35.5667 12.8333H8.43333C7.40657 12.8333 6.89319 12.8333 6.50102 13.0332C6.15605 13.2089 5.87559 13.4894 5.69982 13.8344C5.5 14.2265 5.5 14.7399 5.5 15.7667V19.0667C5.5 20.0934 5.5 20.6068 5.69982 20.999C5.87559 21.3439 6.15605 21.6244 6.50102 21.8002C6.89319 22 7.40657 22 8.43333 22Z" stroke="#6034E2" stroke-width="3" stroke-linecap="round" stroke-linejoin="round"/>
</svg>
