<svg width="44" height="44" viewBox="0 0 44 44" fill="none" xmlns="http://www.w3.org/2000/svg">
<path d="M15.5833 29.3333C15.5833 29.3333 17.1272 30.0051 18.15 30.183C21.1677 30.708 22.8323 27.9587 25.85 28.4837C26.8728 28.6616 28.4167 29.3333 28.4167 29.3333M13.75 22C13.75 22 15.735 22.6717 17.05 22.8497C20.9299 23.3747 23.0701 20.6253 26.95 21.1503C28.265 21.3283 30.25 22 30.25 22M15.5833 14.6667C15.5833 14.6667 17.1272 15.3384 18.15 15.5163C21.1677 16.0413 22.8323 13.292 25.85 13.817C26.8728 13.9949 28.4167 14.6667 28.4167 14.6667M38.5 22C38.5 31.1127 31.1127 38.5 22 38.5C12.8873 38.5 5.5 31.1127 5.5 22C5.5 12.8873 12.8873 5.5 22 5.5C31.1127 5.5 38.5 12.8873 38.5 22Z" stroke="#6034E2" stroke-width="3" stroke-linecap="round" stroke-linejoin="round"/>
</svg>
