<svg width="44" height="44" viewBox="0 0 44 44" fill="none" xmlns="http://www.w3.org/2000/svg">
<path d="M23.8333 36.6666V32.9999C23.8333 27.9373 19.7293 23.8333 14.6667 23.8333C9.60406 23.8333 5.5 27.9373 5.5 32.9999V36.6666H23.8333ZM23.8333 36.6666H38.5V34.8333C38.5 29.4331 34.3959 25.6666 29.3333 25.6666C26.7422 25.6666 24.4022 26.8133 22.735 28.6569M20.1667 12.8333C20.1667 15.8708 17.7042 18.3333 14.6667 18.3333C11.6291 18.3333 9.16667 15.8708 9.16667 12.8333C9.16667 9.79569 11.6291 7.33325 14.6667 7.33325C17.7042 7.33325 20.1667 9.79569 20.1667 12.8333ZM33 16.4999C33 18.525 31.3584 20.1666 29.3333 20.1666C27.3083 20.1666 25.6667 18.525 25.6667 16.4999C25.6667 14.4749 27.3083 12.8333 29.3333 12.8333C31.3584 12.8333 33 14.4749 33 16.4999Z" stroke="#6034E2" stroke-width="3" stroke-linecap="round" stroke-linejoin="round"/>
</svg>
